<?xml version="1.0" encoding="utf-8"?>
<!-- Generator: Adobe Illustrator 26.0.3, SVG Export Plug-In . SVG Version: 6.00 Build 0)  -->
<svg version="1.0" id="katman_1" xmlns="http://www.w3.org/2000/svg" xmlns:xlink="http://www.w3.org/1999/xlink" x="0px" y="0px"
	 viewBox="0 0 600 450" style="enable-background:new 0 0 600 450;" xml:space="preserve">
<style type="text/css">
	.st0{opacity:0.5;fill:url(#SVGID_1_);enable-background:new    ;}
	.st1{opacity:0.5;fill:url(#SVGID_00000168107624266752782800000015395010161195906478_);enable-background:new    ;}
	.st2{fill:url(#SVGID_00000044894198779560574920000008152287270974278281_);}
</style>
<g id="Layer_2">
	<g id="Layer_1-2">
		
			<linearGradient id="SVGID_1_" gradientUnits="userSpaceOnUse" x1="243.7619" y1="788.769" x2="410.9465" y2="621.5129" gradientTransform="matrix(1 0 0 1 -120.9449 -478.4878)">
			<stop  offset="0" style="stop-color:#5CB463"/>
			<stop  offset="0.22" style="stop-color:#5DB566"/>
			<stop  offset="0.46" style="stop-color:#5DB670"/>
			<stop  offset="0.7" style="stop-color:#61B883"/>
			<stop  offset="0.95" style="stop-color:#64BC9B"/>
			<stop  offset="1" style="stop-color:#65BDA3"/>
		</linearGradient>
		<path class="st0" d="M206.2,372L206.2,372c-28.7,0-52.1-23.2-52.1-52c0-0.1,0-0.1,0-0.2V133.6c-0.1-28.7,23.2-52.1,51.9-52.2
			c0.1,0,0.1,0,0.2,0l0,0c28.7,0,52.1,23.2,52.1,52c0,0.1,0,0.1,0,0.2v186.2c0.4,28.5-22.4,51.8-50.9,52.2
			C207,372,206.6,372,206.2,372z"/>
		
			<linearGradient id="SVGID_00000088127302991665204120000015803429877440820872_" gradientUnits="userSpaceOnUse" x1="431.4058" y1="788.6296" x2="598.6619" y2="621.4449" gradientTransform="matrix(1 0 0 1 -120.9449 -478.4878)">
			<stop  offset="0" style="stop-color:#5CB463"/>
			<stop  offset="0.22" style="stop-color:#5DB566"/>
			<stop  offset="0.46" style="stop-color:#5DB670"/>
			<stop  offset="0.7" style="stop-color:#61B883"/>
			<stop  offset="0.95" style="stop-color:#64BC9B"/>
			<stop  offset="1" style="stop-color:#65BDA3"/>
		</linearGradient>
		<path style="opacity:0.5;fill:url(#SVGID_00000088127302991665204120000015803429877440820872_);enable-background:new    ;" d="
			M393.9,372L393.9,372c-28.7,0-52.1-23.2-52.1-52c0-0.1,0-0.1,0-0.2V133.6c-0.1-28.7,23.2-52.1,51.9-52.2c0.1,0,0.1,0,0.2,0l0,0
			c28.7-0.2,52.1,22.9,52.3,51.6c0,0.2,0,0.4,0,0.6v186.2C446.1,348.6,422.8,371.9,393.9,372z"/>
		
			<linearGradient id="SVGID_00000096020137739786625510000009643067791036232623_" gradientUnits="userSpaceOnUse" x1="290.0961" y1="834.7289" x2="551.0812" y2="573.7438" gradientTransform="matrix(1 0 0 1 -120.9449 -478.4878)">
			<stop  offset="0" style="stop-color:#5CB463"/>
			<stop  offset="0.22" style="stop-color:#5DB566"/>
			<stop  offset="0.46" style="stop-color:#5DB670"/>
			<stop  offset="0.7" style="stop-color:#61B883"/>
			<stop  offset="0.95" style="stop-color:#64BC9B"/>
			<stop  offset="1" style="stop-color:#65BDA3"/>
		</linearGradient>
		<path style="fill:url(#SVGID_00000096020137739786625510000009643067791036232623_);" d="M431.1,356.3L431.1,356.3
			c-20.3,20.5-53.4,20.7-73.9,0.3c-0.1-0.1-0.2-0.2-0.3-0.3L169.1,168.6c-20.5-20.3-20.7-53.4-0.3-73.9c0.1-0.1,0.2-0.2,0.3-0.3l0,0
			c20.1-20.5,53.1-20.8,73.6-0.6c0.2,0.2,0.4,0.4,0.6,0.6L431.1,282c20.5,20.2,20.8,53.2,0.6,73.7
			C431.5,355.9,431.3,356.1,431.1,356.3z M446.3,133.6L446.3,133.6c0.1-28.7-23.2-52.1-51.9-52.2c-0.1,0-0.3,0-0.4,0l0,0
			c-28.7,0-52.1,23.2-52.1,52c0,0.1,0,0.1,0,0.2l0,0c-0.1,28.7,23.1,52,51.8,52.1c0.1,0,0.2,0,0.3,0l0,0
			C422.7,185.7,446.1,162.4,446.3,133.6z M259.3,319.2L259.3,319.2c0-28.7-23.2-52.1-52-52.1c-0.1,0-0.1,0-0.2,0l0,0
			c-28.7-0.1-52,23.1-52.1,51.8c0,0.1,0,0.2,0,0.3l0,0c-0.2,28.7,23,52.1,51.7,52.3c0.1,0,0.1,0,0.2,0l0,0
			c28.5,0.3,51.9-22.5,52.2-51c0-0.4,0-0.8,0-1.2H259.3z"/>
	</g>
</g>
</svg>
